<svg width="36" height="36" viewBox="0 0 36 36" fill="none" xmlns="http://www.w3.org/2000/svg">
<g clip-path="url(#clip0_854_807)">
<path d="M10.5001 31.4715C8.45122 31.3142 6.50439 30.5135 4.93763 29.1838C3.37087 27.8541 2.26431 26.0634 1.77593 24.0673C1.28756 22.0712 1.44235 19.9718 2.2182 18.069C2.99406 16.1661 4.35131 14.557 6.09615 13.4715C6.46741 10.5766 7.88084 7.91627 10.0719 5.98825C12.263 4.06023 15.0816 2.9967 18.0001 2.9967C20.9187 2.9967 23.7373 4.06023 25.9284 5.98825C28.1194 7.91627 29.5329 10.5766 29.9041 13.4715C31.649 14.557 33.0062 16.1661 33.7821 18.069C34.5579 19.9718 34.7127 22.0712 34.2244 24.0673C33.736 26.0634 32.6294 27.8541 31.0627 29.1838C29.4959 30.5135 27.5491 31.3142 25.5001 31.4715V31.5H10.5001V31.4715ZM19.5001 18V12H16.5001V18H12.0001L18.0001 25.5L24.0001 18H19.5001Z" fill="white"/>
</g>
<defs>
<clipPath id="clip0_854_807">
<rect width="36" height="36" fill="white"/>
</clipPath>
</defs>
</svg>
