<svg width="28" height="32" viewBox="0 0 28 32" fill="none" xmlns="http://www.w3.org/2000/svg">
<path d="M0 27.6426V4.35922C0 2.43929 0 1.47826 0.37353 0.910198C0.699542 0.414406 1.20204 0.088887 1.7599 0.0110617C2.39885 -0.0780752 3.18252 0.373992 4.7476 1.27684L24.9284 12.9185L24.9357 12.922C26.6653 13.9198 27.5305 14.4189 27.8143 15.0841C28.0619 15.6645 28.0619 16.3343 27.8143 16.9147C27.5301 17.5808 26.6629 18.082 24.9284 19.0826L4.7476 30.7242C3.1814 31.6277 2.39908 32.0781 1.7599 31.9889C1.20204 31.9111 0.699542 31.5856 0.37353 31.0898C0 30.5218 0 29.5625 0 27.6426Z" fill="white"/>
</svg>
