<svg width="36" height="36" viewBox="0 0 36 36" fill="none" xmlns="http://www.w3.org/2000/svg">
<g clip-path="url(#clip0_854_803)">
<path d="M14.9311 3.31499C16.9545 2.89069 19.0438 2.88967 21.0676 3.31199C21.2024 4.20192 21.536 5.05002 22.0437 5.79325C22.5514 6.53649 23.2201 7.15574 24.0001 7.60499C24.7794 8.05578 25.6503 8.32508 26.5481 8.39286C27.4459 8.46064 28.3474 8.32516 29.1856 7.99649C30.563 9.53858 31.6064 11.349 32.2501 13.314C31.5471 13.8759 30.9797 14.5889 30.5902 15.4002C30.2007 16.2114 29.999 17.1001 30.0001 18C30.0001 19.896 30.8791 21.5865 32.2531 22.686C31.6056 24.6493 30.5609 26.4583 29.1841 28.0005C28.3461 27.6721 27.4449 27.5367 26.5474 27.6045C25.6499 27.6722 24.7792 27.9414 24.0001 28.392C23.2208 28.8411 22.5526 29.46 22.0452 30.2026C21.5378 30.9453 21.2041 31.7927 21.0691 32.682C19.0459 33.1073 16.9566 33.1093 14.9326 32.688C14.7984 31.7973 14.465 30.9483 13.9573 30.2042C13.4496 29.4601 12.7806 28.8402 12.0001 28.3905C11.2206 27.9399 10.3496 27.6709 9.45185 27.6034C8.55409 27.5359 7.65265 27.6716 6.81457 28.0005C5.43697 26.458 4.39358 24.647 3.75007 22.6815C4.45266 22.1199 5.01976 21.4074 5.40927 20.5966C5.79879 19.7859 6.00072 18.8979 6.00007 17.9985C6.00081 17.0983 5.79863 16.2095 5.40857 15.3983C5.01851 14.587 4.45061 13.8741 3.74707 13.3125C4.39457 11.3492 5.43925 9.54014 6.81607 7.99799C7.65405 8.32642 8.55527 8.46178 9.45276 8.394C10.3502 8.32622 11.2209 8.05705 12.0001 7.60649C12.7794 7.15738 13.4476 6.53852 13.955 5.79585C14.4624 5.05317 14.796 4.20425 14.9311 3.31499ZM18.0001 22.5C19.1935 22.5 20.3381 22.0259 21.1821 21.182C22.026 20.3381 22.5001 19.1935 22.5001 18C22.5001 16.8065 22.026 15.6619 21.1821 14.818C20.3381 13.9741 19.1935 13.5 18.0001 13.5C16.8066 13.5 15.662 13.9741 14.8181 14.818C13.9742 15.6619 13.5001 16.8065 13.5001 18C13.5001 19.1935 13.9742 20.3381 14.8181 21.182C15.662 22.0259 16.8066 22.5 18.0001 22.5Z" fill="white"/>
</g>
<defs>
<clipPath id="clip0_854_803">
<rect width="36" height="36" fill="white"/>
</clipPath>
</defs>
</svg>
