<svg width="36" height="36" viewBox="0 0 36 36" fill="none" xmlns="http://www.w3.org/2000/svg">
<path d="M26 12C26 13.3189 26 14.653 26 16C26 17.347 26 18.6811 26 20" stroke="white" stroke-width="1.5" stroke-linecap="round"/>
<path d="M18 16C18 12.0932 17.6549 8.27451 16.9962 4.57823C16.8663 3.84905 16.0096 3.53035 15.424 3.98384L10.0407 8.15272C9.69019 8.42414 9.25945 8.57143 8.81614 8.57143H3C1.89543 8.57143 1 9.46686 1 10.5714V21.4286C1 22.5331 1.89543 23.4286 3 23.4286H8.81614C9.25945 23.4286 9.69019 23.5759 10.0407 23.8473L15.424 28.0162C16.0096 28.4697 16.8663 28.1509 16.9962 27.4218C17.6549 23.7255 18 19.9068 18 16Z" fill="white" stroke="white" stroke-linejoin="round"/>
</svg>
