<svg width="43" height="48" viewBox="0 0 43 48" fill="none" xmlns="http://www.w3.org/2000/svg">
<path fill-rule="evenodd" clip-rule="evenodd" d="M34 11.4313L34 41.5592C34 46.4973 28.712 49.5931 24.4621 47.1431L18.0543 43.4492C17.401 43.0726 16.599 43.0726 15.9457 43.4492L9.53789 47.1431C5.28795 49.5931 2.00079e-06 46.4973 2.21665e-06 41.5592L-2.81122e-07 11.4313C-1.25863e-07 7.8794 2.85419 5 6.375 5L27.625 5C31.1458 5 34 7.8794 34 11.4313Z" fill="white"/>
<rect x="17" width="26" height="12" rx="2" fill="#D90000"/>
<path d="M23.746 3.452C24.178 3.452 24.52 3.564 24.772 3.788C25.028 4.008 25.156 4.312 25.156 4.7V6.482C25.156 7.006 25.032 7.408 24.784 7.688C24.536 7.964 24.184 8.102 23.728 8.102C23.256 8.102 22.892 7.96 22.636 7.676C22.384 7.392 22.258 6.986 22.258 6.458C22.258 6.158 22.308 5.884 22.408 5.636C22.512 5.384 22.66 5.186 22.852 5.042C23.044 4.894 23.27 4.82 23.53 4.82C23.83 4.82 24.088 4.928 24.304 5.144V4.646C24.304 4.254 24.116 4.058 23.74 4.058C23.572 4.058 23.442 4.094 23.35 4.166C23.258 4.234 23.212 4.322 23.212 4.43V4.484L22.402 4.568C22.386 4.52 22.378 4.472 22.378 4.424C22.378 4.24 22.434 4.074 22.546 3.926C22.662 3.778 22.824 3.662 23.032 3.578C23.24 3.494 23.478 3.452 23.746 3.452ZM23.728 7.466C23.924 7.466 24.068 7.386 24.16 7.226C24.256 7.066 24.304 6.82 24.304 6.488V5.762C24.22 5.658 24.132 5.58 24.04 5.528C23.948 5.476 23.842 5.45 23.722 5.45C23.546 5.45 23.406 5.536 23.302 5.708C23.198 5.876 23.146 6.126 23.146 6.458C23.146 6.822 23.194 7.082 23.29 7.238C23.386 7.39 23.532 7.466 23.728 7.466ZM27.3895 4.82C27.3975 4.952 27.4355 5.076 27.5035 5.192C27.5715 5.304 27.6755 5.442 27.8155 5.606C27.9395 5.758 28.0395 5.89 28.1155 6.002C28.1915 6.11 28.2555 6.238 28.3075 6.386C28.3635 6.534 28.3915 6.696 28.3915 6.872C28.3915 7.116 28.3315 7.332 28.2115 7.52C28.0955 7.704 27.9315 7.848 27.7195 7.952C27.5075 8.052 27.2655 8.102 26.9935 8.102C26.7095 8.102 26.4635 8.048 26.2555 7.94C26.0515 7.832 25.8955 7.686 25.7875 7.502C25.6795 7.318 25.6255 7.114 25.6255 6.89C25.6255 6.642 25.6835 6.416 25.7995 6.212L26.5375 6.404C26.4895 6.54 26.4655 6.7 26.4655 6.884C26.4655 7.064 26.5115 7.206 26.6035 7.31C26.6955 7.414 26.8255 7.466 26.9935 7.466C27.1695 7.466 27.2995 7.412 27.3835 7.304C27.4715 7.196 27.5155 7.058 27.5155 6.89C27.5155 6.718 27.4775 6.57 27.4015 6.446C27.3295 6.318 27.2195 6.17 27.0715 6.002C26.9555 5.866 26.8615 5.748 26.7895 5.648C26.7215 5.548 26.6615 5.43 26.6095 5.294C26.5615 5.154 26.5375 4.996 26.5375 4.82H27.3895ZM33.3671 4.724C33.7231 4.724 34.0111 4.846 34.2311 5.09C34.4511 5.334 34.5611 5.686 34.5611 6.146C34.5611 6.458 34.5351 6.734 34.4831 6.974C34.4351 7.21 34.3591 7.436 34.2551 7.652L33.5171 7.424C33.5771 7.232 33.6211 7.04 33.6491 6.848C33.6771 6.652 33.6911 6.43 33.6911 6.182C33.6911 5.894 33.6511 5.686 33.5711 5.558C33.4911 5.426 33.3851 5.36 33.2531 5.36C33.1411 5.36 33.0511 5.4 32.9831 5.48C32.9191 5.56 32.8871 5.68 32.8871 5.84V6.926L32.0951 7.01V5.846C32.0951 5.682 32.0611 5.56 31.9931 5.48C31.9291 5.4 31.8391 5.36 31.7231 5.36C31.6071 5.36 31.5151 5.4 31.4471 5.48C31.3791 5.56 31.3451 5.682 31.3451 5.846V6.92L30.5471 7.01V5.84C30.5471 5.676 30.5151 5.556 30.4511 5.48C30.3871 5.4 30.2991 5.36 30.1871 5.36C29.8911 5.36 29.7431 5.666 29.7431 6.278C29.7431 6.614 29.8171 6.888 29.9651 7.1C30.1131 7.312 30.2951 7.474 30.5111 7.586C30.7271 7.698 30.9951 7.802 31.3151 7.898C31.7111 8.018 32.0491 8.15 32.3291 8.294C32.6131 8.442 32.8451 8.634 33.0251 8.87L32.4851 9.326C32.0931 8.87 31.6031 8.642 31.0151 8.642C30.7911 8.642 30.5871 8.674 30.4031 8.738C30.2191 8.802 30.0311 8.892 29.8391 9.008L29.6291 8.378C29.8971 8.254 30.1971 8.192 30.5291 8.192C30.0451 8.076 29.6491 7.858 29.3411 7.538C29.0331 7.214 28.8791 6.78 28.8791 6.236C28.8791 5.728 28.9851 5.35 29.1971 5.102C29.4091 4.85 29.6951 4.724 30.0551 4.724C30.2871 4.724 30.4771 4.78 30.6251 4.892C30.7771 5.004 30.8811 5.17 30.9371 5.39C30.9811 5.17 31.0691 5.004 31.2011 4.892C31.3371 4.78 31.5111 4.724 31.7231 4.724C32.1511 4.724 32.4091 4.946 32.4971 5.39C32.5451 5.17 32.6431 5.004 32.7911 4.892C32.9391 4.78 33.1311 4.724 33.3671 4.724ZM36.4403 4.724C36.8483 4.724 37.1723 4.838 37.4123 5.066C37.6523 5.29 37.7723 5.598 37.7723 5.99V7.958C37.7723 8.222 37.7183 8.456 37.6103 8.66C37.5023 8.868 37.3423 9.03 37.1303 9.146C36.9223 9.266 36.6743 9.326 36.3863 9.326C36.0943 9.326 35.8443 9.27 35.6363 9.158C35.4323 9.05 35.2783 8.898 35.1743 8.702C35.0703 8.51 35.0183 8.292 35.0183 8.048C35.0183 7.768 35.0823 7.5 35.2103 7.244L35.9603 7.43C35.8963 7.63 35.8643 7.836 35.8643 8.048C35.8643 8.248 35.9083 8.404 35.9963 8.516C36.0843 8.632 36.2143 8.69 36.3863 8.69C36.5703 8.69 36.7043 8.626 36.7883 8.498C36.8763 8.374 36.9203 8.202 36.9203 7.982V5.966C36.9203 5.562 36.7603 5.36 36.4403 5.36C36.2763 5.36 36.1523 5.408 36.0683 5.504C35.9883 5.596 35.9483 5.714 35.9483 5.858C35.9483 6.026 35.9703 6.176 36.0143 6.308L35.2343 6.452C35.1463 6.248 35.1023 6.054 35.1023 5.87C35.1023 5.646 35.1583 5.448 35.2703 5.276C35.3823 5.1 35.5403 4.964 35.7443 4.868C35.9483 4.772 36.1803 4.724 36.4403 4.724Z" fill="#E7E7E7"/>
</svg>
