<svg width="24" height="24" viewBox="0 0 24 24" fill="none" xmlns="http://www.w3.org/2000/svg">
<path fill-rule="evenodd" clip-rule="evenodd" d="M14.6607 18.3978C15.0399 18.65 15.1421 19.1605 14.8888 19.5382C14.2832 20.4411 13.1928 21 12 21C10.8072 21 9.71686 20.4411 9.11122 19.5382C8.85794 19.1605 8.96008 18.65 9.33934 18.3978C9.71861 18.1456 10.2314 18.2473 10.4847 18.6249C10.7581 19.0327 11.3109 19.3556 12 19.3556C12.6891 19.3556 13.2419 19.0327 13.5153 18.6249C13.7686 18.2473 14.2814 18.1456 14.6607 18.3978Z" fill="white" fill-opacity="0.71"/>
<path d="M17.4436 9.75394C17.3069 9.61938 17.2299 9.43592 17.2299 9.24448V8.56243C17.2299 7.70353 17.0849 6.85075 16.8011 6.03969C16.2587 4.4902 14.9054 3.3626 13.2779 3.10428L13.2341 3.09733C12.4165 2.96756 11.5835 2.96756 10.7659 3.09733L10.7221 3.10427C9.09465 3.3626 7.74126 4.4902 7.19894 6.03969C6.91506 6.85075 6.7701 7.70353 6.7701 8.56243V9.24448C6.7701 9.43592 6.69313 9.61938 6.55636 9.75394L6.04763 10.2544C4.08747 12.1829 5.01464 15.5048 7.69307 16.1497C10.5236 16.8313 13.4764 16.8313 16.3069 16.1497C18.9854 15.5048 19.9125 12.1828 17.9524 10.2544L17.4436 9.75394Z" fill="white" fill-opacity="0.71"/>
</svg>
