<svg width="30" height="30" viewBox="0 0 30 30" fill="none" xmlns="http://www.w3.org/2000/svg">
<path fill-rule="evenodd" clip-rule="evenodd" d="M18.3258 22.9973C18.7999 23.3125 18.9276 23.9507 18.611 24.4227C17.8539 25.5514 16.491 26.25 15 26.25C13.509 26.25 12.1461 25.5514 11.389 24.4227C11.0724 23.9507 11.2001 23.3125 11.6742 22.9973C12.1483 22.682 12.7892 22.8092 13.1058 23.2812C13.4477 23.7908 14.1386 24.1945 15 24.1945C15.8614 24.1945 16.5524 23.7908 16.8942 23.2812C17.2108 22.8092 17.8518 22.682 18.3258 22.9973Z" fill="#E7E7E7"/>
<path d="M21.8046 12.1924C21.6336 12.0242 21.5374 11.7949 21.5374 11.5556V10.703C21.5374 9.62942 21.3562 8.56343 21.0013 7.54961C20.3234 5.61275 18.6317 4.20325 16.5973 3.88034L16.5427 3.87166C15.5207 3.70945 14.4793 3.70945 13.4573 3.87166L13.4027 3.88034C11.3683 4.20325 9.67658 5.61275 8.99867 7.54961C8.64383 8.56343 8.46262 9.62942 8.46262 10.703V11.5556C8.46262 11.7949 8.36641 12.0242 8.19545 12.1924L7.55954 12.818C5.10933 15.2286 6.26831 19.381 9.61634 20.1872C13.1544 21.0391 16.8456 21.0391 20.3837 20.1872C23.7317 19.381 24.8907 15.2286 22.4405 12.818L21.8046 12.1924Z" fill="#E7E7E7"/>
</svg>
