<svg width="30" height="40" viewBox="0 0 30 40" fill="none" xmlns="http://www.w3.org/2000/svg">
<path d="M29.0728 28.0863L26.6034 24.383C27.0078 24.1147 27.3554 23.7693 27.6262 23.3666C27.897 22.9638 28.0857 22.5116 28.1816 22.0359C28.2774 21.5601 28.2786 21.0701 28.1849 20.5939C28.0912 20.1177 27.9045 19.6647 27.6355 19.2607L24.149 14.0333C24.4543 13.7553 24.7112 13.4285 24.9093 13.0662C25.2262 12.4845 25.3805 11.8282 25.3558 11.1662C25.3312 10.5042 25.1286 9.86109 24.7693 9.30456C24.7276 9.2412 17.7979 1.14923 17.7979 1.14923C17.4228 0.777605 16.9773 0.484577 16.4875 0.287316C15.9977 0.0900544 15.4734 -0.00747325 14.9454 0.00044641C14.4175 0.00836607 13.8964 0.121574 13.4127 0.333437C12.9291 0.5453 12.4926 0.851559 12.1287 1.23427C12.1287 1.23427 5.24908 9.23786 5.20907 9.29122C4.72975 10.0293 4.53016 10.9145 4.64636 11.7869C4.76255 12.6593 5.18687 13.4614 5.84268 14.0484L2.36449 19.2607C2.09552 19.6647 1.90885 20.1177 1.81515 20.5939C1.72144 21.0701 1.72256 21.5601 1.81842 22.0359C1.91428 22.5116 2.10302 22.9638 2.37382 23.3666C2.64462 23.7693 2.99218 24.1147 3.39661 24.383L0.9272 28.0863C0.373126 28.9171 0.0549125 29.8827 0.00649123 30.8802C-0.04193 31.8776 0.181256 32.8695 0.652252 33.75C1.12325 34.6306 1.82439 35.3668 2.68093 35.8802C3.53746 36.3936 4.51726 36.6649 5.51587 36.6652H13.3326V38.3326C13.3326 38.7748 13.5083 39.1989 13.821 39.5116C14.1337 39.8243 14.5578 40 15 40C15.4422 40 15.8663 39.8243 16.179 39.5116C16.4917 39.1989 16.6674 38.7748 16.6674 38.3326V36.6652H24.4825C25.4812 36.6652 26.4612 36.3941 27.318 35.8809C28.1748 35.3676 28.8762 34.6314 29.3474 33.7508C29.8186 32.8702 30.0419 31.8782 29.9935 30.8806C29.9452 29.883 29.627 28.9172 29.0728 28.0863ZM15 6.6517C15.3298 6.6517 15.6522 6.74949 15.9264 6.93271C16.2006 7.11593 16.4143 7.37634 16.5405 7.68102C16.6667 7.9857 16.6997 8.32097 16.6354 8.64441C16.571 8.96786 16.4122 9.26496 16.179 9.49816C15.9458 9.73135 15.6487 9.89015 15.3253 9.95449C15.0018 10.0188 14.6666 9.98581 14.3619 9.85961C14.0572 9.7334 13.7968 9.51969 13.6136 9.24548C13.4304 8.97128 13.3326 8.6489 13.3326 8.31912C13.3326 7.87689 13.5083 7.45278 13.821 7.14008C14.1337 6.82738 14.5578 6.6517 15 6.6517ZM8.33043 31.6629C8.00065 31.6629 7.67827 31.5651 7.40407 31.3819C7.12987 31.1987 6.91616 30.9383 6.78996 30.6336C6.66376 30.3289 6.63074 29.9937 6.69507 29.6702C6.75941 29.3468 6.91821 29.0497 7.1514 28.8165C7.38459 28.5833 7.68169 28.4245 8.00513 28.3601C8.32858 28.2958 8.66384 28.3288 8.96851 28.455C9.27319 28.5812 9.5336 28.7949 9.71681 29.0691C9.90003 29.3433 9.99782 29.6657 9.99782 29.9955C9.99782 30.4377 9.82215 30.8619 9.50945 31.1746C9.19676 31.4873 8.77265 31.6629 8.33043 31.6629ZM8.33043 23.3259C8.00065 23.3259 7.67827 23.2281 7.40407 23.0448C7.12987 22.8616 6.91616 22.6012 6.78996 22.2965C6.66376 21.9918 6.63074 21.6566 6.69507 21.3331C6.75941 21.0097 6.91821 20.7126 7.1514 20.4794C7.38459 20.2462 7.68169 20.0874 8.00513 20.0231C8.32858 19.9587 8.66384 19.9917 8.96851 20.1179C9.27319 20.2441 9.5336 20.4579 9.71681 20.7321C9.90003 21.0063 9.99782 21.3287 9.99782 21.6584C9.99782 22.1007 9.82215 22.5248 9.50945 22.8375C9.19676 23.1502 8.77265 23.3259 8.33043 23.3259ZM15 16.6562C14.6702 16.6562 14.3478 16.5584 14.0736 16.3752C13.7994 16.192 13.5857 15.9315 13.4595 15.6269C13.3333 15.3222 13.3003 14.9869 13.3646 14.6635C13.429 14.34 13.5878 14.0429 13.821 13.8097C14.0542 13.5765 14.3513 13.4177 14.6747 13.3534C14.9981 13.2891 15.3334 13.3221 15.6381 13.4483C15.9428 13.5745 16.2032 13.7882 16.3864 14.0624C16.5696 14.3366 16.6674 14.659 16.6674 14.9888C16.6674 15.431 16.4917 15.8551 16.179 16.1678C15.8663 16.4805 15.4422 16.6562 15 16.6562ZM21.6696 19.991C21.3398 19.991 21.0174 19.8932 20.7432 19.71C20.469 19.5268 20.2553 19.2664 20.1291 18.9617C20.0029 18.657 19.9699 18.3218 20.0342 17.9983C20.0986 17.6749 20.2574 17.3778 20.4905 17.1446C20.7237 16.9114 21.0208 16.7526 21.3443 16.6882C21.6677 16.6239 22.003 16.6569 22.3077 16.7831C22.6123 16.9093 22.8727 17.123 23.056 17.3972C23.2392 17.6714 23.337 17.9938 23.337 18.3236C23.337 18.7658 23.1613 19.1899 22.8486 19.5026C22.5359 19.8153 22.1118 19.991 21.6696 19.991ZM21.6696 29.9955C21.3398 29.9955 21.0174 29.8977 20.7432 29.7145C20.469 29.5313 20.2553 29.2709 20.1291 28.9662C20.0029 28.6615 19.9699 28.3262 20.0342 28.0028C20.0986 27.6794 20.2574 27.3822 20.4905 27.1491C20.7237 26.9159 21.0208 26.7571 21.3443 26.6927C21.6677 26.6284 22.003 26.6614 22.3077 26.7876C22.6123 26.9138 22.8727 27.1275 23.056 27.4017C23.2392 27.6759 23.337 27.9983 23.337 28.3281C23.337 28.7703 23.1613 29.1944 22.8486 29.5071C22.5359 29.8198 22.1118 29.9955 21.6696 29.9955ZM15 26.6607C14.6702 26.6607 14.3478 26.5629 14.0736 26.3797C13.7994 26.1965 13.5857 25.936 13.4595 25.6314C13.3333 25.3267 13.3003 24.9914 13.3646 24.668C13.429 24.3445 13.5878 24.0474 13.821 23.8142C14.0542 23.581 14.3513 23.4222 14.6747 23.3579C14.9981 23.2936 15.3334 23.3266 15.6381 23.4528C15.9428 23.579 16.2032 23.7927 16.3864 24.0669C16.5696 24.3411 16.6674 24.6635 16.6674 24.9933C16.6674 25.4355 16.4917 25.8596 16.179 26.1723C15.8663 26.485 15.4422 26.6607 15 26.6607Z" fill="#E7E7E7"/>
</svg>
