<svg width="49" height="49" viewBox="0 0 49 49" fill="none" xmlns="http://www.w3.org/2000/svg">
<g opacity="0.8">
<path d="M42.461 24.0551C43.013 23.4995 43.013 22.5987 42.461 22.0431L30.7607 10.2659C29.5634 9.0607 28.565 8.05567 27.6658 7.36512C26.7167 6.63624 25.7139 6.125 24.5 6.125C23.2861 6.125 22.2833 6.63624 21.3342 7.36512C20.435 8.05568 19.4366 9.0607 18.2393 10.2659L6.53899 22.0431C5.987 22.5987 5.987 23.4995 6.53899 24.0551C7.09098 24.6107 7.98594 24.6107 8.53793 24.0551L9.34768 23.24V29.4677C9.34768 35.5808 13.528 40.8897 19.4407 42.2857C22.7684 43.0714 26.2316 43.0714 29.5593 42.2857C35.472 40.8897 39.6523 35.5808 39.6523 29.4677V23.24L40.4621 24.0551C41.0141 24.6107 41.909 24.6107 42.461 24.0551Z" fill="url(#paint0_linear_295_311)"/>
</g>
<defs>
<linearGradient id="paint0_linear_295_311" x1="7" y1="24" x2="43" y2="24" gradientUnits="userSpaceOnUse">
<stop stop-color="#FF00B8"/>
<stop offset="0.488545" stop-color="#9A34D0" stop-opacity="0.82"/>
<stop offset="1" stop-color="#12B5FB"/>
</linearGradient>
</defs>
</svg>
