<svg width="35" height="35" viewBox="0 0 35 35" fill="none" xmlns="http://www.w3.org/2000/svg">
<path d="M14.2188 11.5937V4.81257C14.2188 4.57049 14.4142 4.375 14.6563 4.375H20.3437C20.5858 4.375 20.7812 4.57049 20.7812 4.81257V11.5937C20.7812 11.8358 20.5858 12.0312 20.3437 12.0312H14.6563C14.4142 12.0312 14.2188 11.8358 14.2188 11.5937ZM30.625 14.6563V25.7031C30.625 28.9844 28.9844 30.625 25.7031 30.625H9.29688C6.01562 30.625 4.375 28.9844 4.375 25.7031V14.6563C4.375 14.4142 4.57049 14.2188 4.81257 14.2188H30.1874C30.4295 14.2188 30.625 14.4142 30.625 14.6563ZM21.264 20.0578L16.6717 17.2476C15.7573 16.689 14.5819 17.3439 14.5819 18.4129V23.8774C14.5819 24.9463 15.7573 25.6027 16.6717 25.0427L21.264 22.2325C22.0792 21.7352 22.0792 20.5565 21.264 20.0578ZM4.81257 12.0312H11.5937C11.8358 12.0312 12.0312 11.8358 12.0312 11.5937V4.81257C12.0312 4.57049 11.8358 4.375 11.5937 4.375H9.29688C6.01562 4.375 4.375 6.01562 4.375 9.29688V11.5937C4.375 11.8358 4.57049 12.0312 4.81257 12.0312ZM25.7031 4.375H23.4063C23.1642 4.375 22.9688 4.57049 22.9688 4.81257V11.5937C22.9688 11.8358 23.1642 12.0312 23.4063 12.0312H30.1874C30.4295 12.0312 30.625 11.8358 30.625 11.5937V9.29688C30.625 6.01562 28.9844 4.375 25.7031 4.375Z" fill="white"/>
</svg>
